# xmcd
#
# Track frame offsets: 
#        150
#        16973
#        39912
#        57773
#        76266
#        99649
#        120478
#        138842
#        162999
#        180405
#        200082
#        218710
#        241107
#        259705
#
# Disc length: 3710 seconds
#
# Revision: 2
# Processed by: cddbd v1.5.2PL0 Copyright (c) Steve Scherf et al.
# Submitted via: ExactAudioCopyFreeDBPlugin 1.0
#
DISCID=ae0e7c0e
DTITLE=Tyrese - Black Rose
DYEAR=2015
DGENRE=R&B
TTITLE0=Addict
TTITLE1=Dumb Shit (feat. Snoop Dogg and Black Ty)
TTITLE2=Picture Perfect
TTITLE3=Waiting on You
TTITLE4=Shame
TTITLE5=Don't Wanna Look Back (feat. Chrisette Michele)
TTITLE6=Prior to You (feat. Tank)
TTITLE7=Leave
TTITLE8=Without My Heart
TTITLE9=When We Make Love
TTITLE10=Gonna Give You What You Need
TTITLE11=Body Language
TTITLE12=The Rest of Our Lives (feat. Brandy)
TTITLE13=I Still Do
EXTD=
EXTT0=
EXTT1=
EXTT2=
EXTT3=
EXTT4=
EXTT5=
EXTT6=
EXTT7=
EXTT8=
EXTT9=
EXTT10=
EXTT11=
EXTT12=
EXTT13=
PLAYORDER=
